<svg width="36" height="34" fill="none" xmlns="http://www.w3.org/2000/svg"><path opacity=".5" fill-rule="evenodd" clip-rule="evenodd" d="M34.07 21.445a4.228 4.228 0 0 0-6.679.561 4.229 4.229 0 0 0-6.684-.556c-1.596 1.74-1.413 4.474.242 6.156l5.883 5.98a.783.783 0 0 0 1.116 0l5.884-5.98c1.658-1.684 1.838-4.422.239-6.161Z" fill="#258AFF"/><path fill-rule="evenodd" clip-rule="evenodd" d="M14.087 20.848H6.26a.782.782 0 1 1 0-1.565h7.826a.782.782 0 1 1 0 1.565Z" fill="#258AFF"/><path fill-rule="evenodd" clip-rule="evenodd" d="M3.13.5h29.74A3.134 3.134 0 0 1 36 3.63v14.087h-1.565v-3.913H1.565v10.174c0 .863.702 1.566 1.565 1.566h12.522v1.565H3.13A3.134 3.134 0 0 1 0 23.979V3.63A3.134 3.134 0 0 1 3.13.5ZM1.565 7.543h32.87V3.63c0-.863-.702-1.565-1.565-1.565H3.13c-.863 0-1.565.702-1.565 1.565v3.913Z" fill="#258AFF"/></svg>