<svg width="135" height="34" fill="none" xmlns="http://www.w3.org/2000/svg"><g clip-path="url(#a)"><path d="M13.59 1.097C10.138 2.884 7.067 6.372 6.624 13.03l-3.432 5.484c-.258.592 0 1.283.557 1.546l2.463.11c.247.12.412.383.412.68v5.11c0 2.622 2.02 4.75 4.503 4.75l4.04-.626-.041 3.28h13.572" stroke="#38327C" stroke-width="2" stroke-miterlimit="10" stroke-linejoin="round"/><path d="M20.724 14.302a1.899 1.899 0 0 0-.711-.174c-1.144-.063-2.132.882-2.182 2.089-.05 1.206.839 2.246 1.983 2.299.938.052 1.74-.564 2.049-1.441l-1.139-2.762v-.01Z" fill="#38327C"/><path d="M14.625 7.538c-.428.23-.595.78-.369 1.229l.983 2.005a.05.05 0 0 1-.01.059c-.44.414-.828.894-1.155 1.407a.05.05 0 0 1-.059.02l-2.083-.74c-.446-.165-.943.093-1.089.573l-.687 2.151c-.157.481.09 1 .537 1.154l2.187.785a.05.05 0 0 1 .033.047c-.008.97.147 1.896.465 2.756a.05.05 0 0 1-.015.057l-1.699 1.341a.954.954 0 0 0-.173 1.282l1.29 1.817h.001a.831.831 0 0 0 1.206.184l1.74-1.374a.05.05 0 0 1 .062 0 6.778 6.778 0 0 0 2.324 1.17.05.05 0 0 1 .037.048l.003 2.16v.003c-.019.5.373.912.848.91l2.155-.004h.002c.473.02.864-.383.863-.895l-.003-2.303a.05.05 0 0 1 .034-.047c.222-.076.561-.242.922-.435.346-.185.709-.393 1.001-.566l-1.21-2.921m0 0c-.786.811-1.87 1.301-3.065 1.238m3.066-1.238-.021-.05c-.78.81-1.855 1.3-3.042 1.238-2.237-.115-3.972-2.13-3.873-4.487.099-2.338 1.82-3.968 3.888-4.054l-.02-.05c-2.087.096-3.818 1.745-3.918 4.102-.1 2.383 1.654 4.422 3.92 4.54m0 0 .003-.05-.003.05Z" fill="#38327C" stroke="#EAF6F3" stroke-width=".1" stroke-miterlimit="10" stroke-linejoin="round"/><path d="M90.831 22.725c0-.669.227-1.25.68-1.733.454-.482 1-.724 1.628-.724.63 0 1.175.242 1.629.724.453.483.68 1.064.68 1.733 0 .67-.227 1.228-.68 1.678-.454.45-1 .68-1.629.68-.628 0-1.174-.23-1.628-.68-.453-.45-.68-1.009-.68-1.678ZM80.804 18.25H68.829l-3.112 6.296h-4.545L73.498 0l2.968.022 11.892 24.513H83.74l-2.937-6.296v.011Zm-1.72-3.674L74.93 5.77l-4.349 8.807h8.502Zm28.308 8.149c0-.669.227-1.25.68-1.733.454-.482 1-.724 1.628-.724.629 0 1.175.242 1.629.724a2.45 2.45 0 0 1 .68 1.733c0 .67-.227 1.228-.68 1.678-.454.45-1 .68-1.629.68-.628 0-1.174-.23-1.628-.68-.453-.45-.68-1.009-.68-1.678ZM103.527.077v24.546h-4.225V.077h4.225Zm23.352 3.597v20.86h-4.225V3.675h-6.43V0h17.065v3.674h-6.41ZM53.402 22.802c0-.669.227-1.25.68-1.733.453-.482 1-.724 1.628-.724.629 0 1.175.242 1.629.724.453.483.68 1.064.68 1.733s-.227 1.228-.68 1.678c-.454.45-1 .68-1.629.68a2.24 2.24 0 0 1-1.628-.68c-.453-.45-.68-1.009-.68-1.678ZM52.897.691l-6.935 16.65L39.882.734h-2.216l-6.348 16.594L24.836.79l-4.483.023 9.532 23.701c1.371-.01 1.474-.01 2.845-.033l5.977-15.695 5.73 15.673c1.37.033 1.473.044 2.844.077L57.4.669l-4.504.022Z" fill="#38327C"/><path d="M50.971 32.388a1.138 1.138 0 0 0-.192-.33 1.492 1.492 0 0 0-.264-.252 1.982 1.982 0 0 0-.294-.164c.081-.055.162-.11.243-.175.081-.066.153-.143.223-.23.071-.089.122-.187.163-.297a1.094 1.094 0 0 0-.03-.79 1.084 1.084 0 0 0-.285-.372 1.2 1.2 0 0 0-.476-.253 2.09 2.09 0 0 0-.68-.098h-2.99v4.595h2.95c.304 0 .568-.033.79-.099a1.59 1.59 0 0 0 .538-.263c.132-.11.233-.241.294-.384.061-.142.091-.307.091-.471 0-.143-.02-.286-.07-.406l-.01-.011Zm-3.598-2.194h1.855c.08 0 .162 0 .253.011.081 0 .152.033.223.077.06.033.112.088.152.154a.5.5 0 0 1 .061.263c0 .22-.071.362-.223.427-.142.066-.304.11-.466.11h-1.855v-1.042Zm2.493 2.896c-.121.098-.334.153-.659.153h-1.834v-1.228h1.672c.365 0 .619.055.77.153.153.11.234.264.234.483 0 .186-.061.33-.183.439Zm6.914-3.707v2.774c0 .34-.122.604-.365.801-.243.198-.618.307-1.115.307s-.872-.099-1.115-.307a.987.987 0 0 1-.365-.8v-2.775h-.963v3.027c0 .219.05.427.142.625.101.197.243.373.446.526.203.154.456.275.76.362.315.088.67.132 1.095.132.426 0 .78-.044 1.095-.132.314-.087.568-.208.76-.362a1.52 1.52 0 0 0 .446-.526c.102-.198.142-.406.142-.625v-3.027h-.963Zm6.853.811v-.767l-4.552-.033v.767l1.775.033v3.817h1.003v-3.817h1.774Zm5.312 0v-.767h-3.923v4.595h3.923v-.768h-2.96v-1.228h2.139v-.768h-2.139v-1.042h2.96v-.022Zm5.312 1.876a2.21 2.21 0 0 0 .426-.154 1.53 1.53 0 0 0 .385-.263 1.174 1.174 0 0 0 .375-.888c0-.494-.172-.845-.517-1.053-.345-.209-.831-.308-1.45-.308H70.78v4.585h1.003v-1.842h1.45l1.247 1.842h1.115l-1.338-1.941v.022Zm-.8-.67h-1.653v-1.206h1.652c.355 0 .618.055.78.154a.467.467 0 0 1 .244.417c0 .427-.345.647-1.024.647V31.4Zm4.52 1.712c.183.054.365.11.548.142a2.8 2.8 0 0 0 .436.055c.101 0 .223 0 .365-.022a1.96 1.96 0 0 0 .425-.088c.142-.043.254-.11.355-.186.102-.077.142-.187.142-.318 0-.154-.08-.263-.253-.33a3.474 3.474 0 0 0-.639-.164c-.253-.033-.537-.077-.831-.11a3.75 3.75 0 0 1-.832-.186 1.64 1.64 0 0 1-.638-.373c-.173-.164-.254-.395-.254-.69 0-.45.183-.801.558-1.065.365-.263.892-.394 1.551-.394.324 0 .608.021.841.076.234.055.436.11.588.176.7.296.852.482.852.482l-.345.648s-.415-.275-1.024-.483c-.283-.099-.618-.12-.983-.12-.142 0-.274 0-.395.021a1.512 1.512 0 0 0-.335.088.662.662 0 0 0-.233.165.38.38 0 0 0-.081.24c0 .154.081.264.253.33.173.066.386.12.639.153s.537.077.831.11c.294.033.578.099.832.197.253.1.476.22.638.395.173.176.254.417.254.724s-.071.56-.223.757a1.566 1.566 0 0 1-.558.46c-.223.11-.466.187-.74.22a6.18 6.18 0 0 1-.76.055c-.244 0-.477-.022-.7-.066-.233-.044-.456-.077-.638-.154-.609-.252-.892-.482-.892-.482l.283-.746s.426.362.953.527l.01-.044Zm11.375-4.256a1.353 1.353 0 0 1-.102-.208h-1.409v.022c-.04.077-.08.164-.131.252L85.337 34v.011h1.115s.01-.033.02-.044l.68-1.316h2.544l.629 1.36v.011h1.41l-2.383-5.166Zm-1.906 3.027.983-1.94.882 1.94h-1.865Zm6.994-3.356h-1.195v5.495h1.196v-5.495Zm10.3.954v-.954h-5.555v.954h2.18v4.53h1.196v-4.53h2.179Zm3.609-.121c.386 0 .74.044 1.085.143.335.099.629.241.882.439.253.197.446.439.598.735.142.296.223.647.223 1.042s-.071.745-.223 1.042a2.044 2.044 0 0 1-.598.734c-.253.198-.547.34-.882.428a4.28 4.28 0 0 1-1.085.132c-.385 0-.74-.044-1.084-.132a2.331 2.331 0 0 1-.882-.428 2.142 2.142 0 0 1-.598-.734 2.397 2.397 0 0 1-.223-1.042c0-.395.07-.746.223-1.042.141-.296.344-.538.598-.735.253-.198.547-.34.882-.439a3.83 3.83 0 0 1 1.084-.142Zm0 .768a1.87 1.87 0 0 0-.648.11 1.731 1.731 0 0 0-.568.318 1.56 1.56 0 0 0-.406.494 1.437 1.437 0 0 0-.152.669 1.437 1.437 0 0 0 .558 1.162c.172.132.355.242.568.318.212.077.425.11.648.11.223 0 .436-.033.649-.11a1.71 1.71 0 0 0 .568-.318 1.429 1.429 0 0 0 .557-1.163c0-.252-.05-.471-.152-.668a1.424 1.424 0 0 0-.405-.494 1.955 1.955 0 0 0-.568-.318 1.88 1.88 0 0 0-.649-.11Zm6.377-.768c.385 0 .74.044 1.085.143.334.099.628.241.881.439.254.197.447.439.599.735.141.296.223.647.223 1.042s-.071.745-.223 1.042a2.036 2.036 0 0 1-.599.734 2.41 2.41 0 0 1-.881.428c-.335.088-.7.132-1.085.132a4.35 4.35 0 0 1-1.085-.132 2.339 2.339 0 0 1-.882-.428 2.153 2.153 0 0 1-.598-.734 2.397 2.397 0 0 1-.223-1.042c0-.395.071-.746.223-1.042.142-.296.345-.538.598-.735a2.63 2.63 0 0 1 .882-.439c.335-.099.7-.142 1.085-.142Zm0 .768a1.88 1.88 0 0 0-.649.11 1.731 1.731 0 0 0-.568.318 1.545 1.545 0 0 0-.405.494 1.425 1.425 0 0 0-.152.669 1.427 1.427 0 0 0 .557 1.162c.173.132.355.242.568.318.213.077.426.11.649.11.223 0 .436-.033.649-.11.212-.076.405-.175.567-.318a1.427 1.427 0 0 0 .558-1.162 1.437 1.437 0 0 0-.558-1.163 1.963 1.963 0 0 0-.567-.318 1.88 1.88 0 0 0-.649-.11Zm8.566 3.115h-3.304v-3.828h-1.004v4.596h4.308v-.768Zm-78.728-3.049v-.767h-3.923v4.595h3.923v-.768h-2.96v-1.228h2.14v-.768h-2.14v-1.042h2.96v-.022Zm80.989 2.918c.182.054.365.11.547.142a2.8 2.8 0 0 0 .436.055c.101 0 .223 0 .365-.022a1.9 1.9 0 0 0 .426-.088c.142-.043.253-.11.354-.186.102-.077.142-.187.142-.318 0-.154-.081-.263-.253-.33a3.46 3.46 0 0 0-.639-.164c-.253-.033-.537-.077-.831-.11a3.743 3.743 0 0 1-.831-.186 1.636 1.636 0 0 1-.639-.373c-.172-.164-.253-.395-.253-.69 0-.45.182-.801.557-1.065.365-.263.892-.394 1.551-.394.325 0 .608.021.842.076.233.055.436.11.588.176.699.296.851.482.851.482l-.345.648s-.415-.275-1.023-.483c-.284-.099-.619-.12-.984-.12-.142 0-.273 0-.395.021a1.52 1.52 0 0 0-.335.088.667.667 0 0 0-.233.165.383.383 0 0 0-.081.24c0 .154.081.264.254.33.172.066.385.12.638.153.254.033.537.077.831.11.294.033.578.099.832.197.253.1.476.22.638.395.173.176.254.417.254.724s-.071.56-.223.757a1.568 1.568 0 0 1-.558.46 2.27 2.27 0 0 1-.74.22 6.172 6.172 0 0 1-.76.055 3.63 3.63 0 0 1-.7-.066c-.233-.044-.456-.077-.638-.154-.608-.252-.892-.482-.892-.482l.284-.746s.425.362.952.527l.011-.044ZM37.995 28.78l-1.348 3.728h-.02l-1.288-3.762h-1.014l-1.287 3.762h-.02l-1.349-3.729h-1.186l1.815 4.892c.02.066.091.252.111.307h1.197c.06-.187.111-.34.172-.526l1.054-3.017 1.055 3.017c.06.186.121.34.172.526h1.196l.112-.307 1.814-4.892h-1.186Z" fill="#DC4E4D"/></g><defs><clipPath id="a"><path fill="#fff" d="M0 0h135v34H0z"/></clipPath></defs></svg>