<svg width="36" height="37" fill="none" xmlns="http://www.w3.org/2000/svg"><path opacity=".2" fill-rule="evenodd" clip-rule="evenodd" d="M7.043 18.5c0 6.042 4.915 10.956 10.957 10.956 6.042 0 10.956-4.914 10.956-10.956S24.042 7.543 18 7.543 7.043 12.458 7.043 18.5Zm1.566 0c0-5.178 4.213-9.391 9.391-9.391s9.391 4.213 9.391 9.391S23.18 27.891 18 27.891c-5.178 0-9.391-4.212-9.391-9.391Z" fill="#258AFF"/><path opacity=".5" fill-rule="evenodd" clip-rule="evenodd" d="M18 21.63a3.13 3.13 0 1 0 0-6.26 3.13 3.13 0 0 0 0 6.26Z" fill="#258AFF"/><path fill-rule="evenodd" clip-rule="evenodd" d="M34.335 10.933c-.416.32-.87.594-1.357.803a16.41 16.41 0 0 1 1.457 6.764c0 9.063-7.372 16.435-16.435 16.435-9.063 0-16.435-7.372-16.435-16.435C1.565 9.437 8.937 2.065 18 2.065c3.148 0 6.221.923 8.85 2.603a3.876 3.876 0 0 0-.241 1.31 3.917 3.917 0 0 0 3.913 3.913 3.918 3.918 0 0 0 3.913-3.913 3.918 3.918 0 0 0-3.913-3.913 3.893 3.893 0 0 0-2.863 1.265A18.025 18.025 0 0 0 18 .5C8.075.5 0 8.575 0 18.5s8.075 18 18 18 18-8.075 18-18a17.98 17.98 0 0 0-1.665-7.567Z" fill="#258AFF"/></svg>