<svg width="36" height="36" fill="none" xmlns="http://www.w3.org/2000/svg"><path opacity=".5" fill-rule="evenodd" clip-rule="evenodd" d="m8.04 4.626 1.106 1.107a12.522 12.522 0 0 1 17.709 0l1.106-1.107a14.087 14.087 0 0 0-19.922 0ZM18 6.76a7.801 7.801 0 0 0-5.534 2.293l1.107 1.107a6.261 6.261 0 0 1 8.854 0l1.107-1.107A7.801 7.801 0 0 0 18 6.761Z" fill="#258AFF"/><path fill-rule="evenodd" clip-rule="evenodd" d="M23.478 28.674v-2.566l-1.812-.605a.783.783 0 0 1-.47-1.053l2.282-5.267v-1.466A10.141 10.141 0 0 1 36 7.827v27.89h-6.26v-3.913h-3.131a3.13 3.13 0 0 1-3.13-3.13Zm-10.956 0v-2.566l1.812-.605a.783.783 0 0 0 .47-1.053l-2.282-5.267v-1.466c0-5.618-4.555-10.174-10.174-10.174A10.15 10.15 0 0 0 0 7.827v27.89h6.26v-3.913h3.131a3.13 3.13 0 0 0 3.13-3.13Z" fill="#258AFF"/><path opacity=".5" fill-rule="evenodd" clip-rule="evenodd" d="M18 16.152a1.565 1.565 0 1 0 0-3.13 1.565 1.565 0 0 0 0 3.13Z" fill="#258AFF"/></svg>