<svg width="147" height="35" viewBox="0 0 147 35" fill="none" xmlns="http://www.w3.org/2000/svg">
<path d="M11.4984 1.09668C8.04609 2.88442 4.9751 6.37216 4.53197 13.0296L1.10029 18.5135C0.842659 19.1057 1.10029 19.7967 1.65678 20.0599L4.11976 20.1696C4.36709 20.2902 4.53197 20.5535 4.53197 20.8496V25.9606C4.53197 28.5818 6.55182 30.7096 9.03541 30.7096L13.0751 30.0844L13.0339 33.3638H26.606" stroke="white" stroke-width="2" stroke-miterlimit="10" stroke-linejoin="round"/>
<path d="M18.6325 14.3024C18.4159 14.2041 18.1787 14.1389 17.921 14.1284C16.7769 14.0651 15.789 15.0103 15.7395 16.2167C15.69 17.4232 16.5781 18.4631 17.7222 18.5155C18.6602 18.5683 19.4631 17.9524 19.7708 17.0745L18.6325 14.3134L18.6325 14.3024Z" fill="white"/>
<path d="M21.9438 22.3447L20.6917 19.3206C19.9098 20.1558 18.818 20.6627 17.612 20.5995C15.3752 20.4838 13.6404 18.4698 13.7397 16.1117C13.8389 13.7536 15.5884 12.1157 17.6807 12.0563L15.4146 6.56689C15.1462 6.33717 14.7545 6.2832 14.4249 6.4594L12.5095 7.49449C12.0564 7.73676 11.8821 8.31838 12.1199 8.78943L13.1023 10.7942C12.6598 11.2119 12.2689 11.6953 11.9399 12.2115L9.85673 11.4703C9.38232 11.2959 8.85711 11.5712 8.70332 12.076L8.01623 14.227C7.85214 14.7319 8.1107 15.2796 8.58508 15.4431L10.7714 16.2279C10.7627 17.204 10.9188 18.1358 11.2397 19.0015L9.54125 20.3431C9.13979 20.6621 9.05831 21.2654 9.3579 21.6925L10.6492 23.5101C10.9488 23.9372 11.5261 24.0236 11.9276 23.7047L13.6672 22.33C14.3587 22.8659 15.153 23.2699 16.0088 23.5093L16.0123 25.6697C15.9926 26.1962 16.4056 26.6339 16.9106 26.6328L19.0647 26.6281C19.5698 26.6489 19.9814 26.2203 19.9805 25.6829L19.9768 23.3799C20.4301 23.2254 21.3466 22.7079 21.9438 22.3557L21.9438 22.3447Z" fill="white"/>
<path d="M88.7393 22.7251C88.7393 22.0561 88.966 21.4748 89.4194 20.9922C89.8728 20.5096 90.419 20.2683 91.0477 20.2683C91.6763 20.2683 92.2225 20.5096 92.6759 20.9922C93.1293 21.4748 93.3561 22.0561 93.3561 22.7251C93.3561 23.3941 93.1293 23.9535 92.6759 24.4032C92.2225 24.8528 91.6763 25.0832 91.0477 25.0832C90.419 25.0832 89.8728 24.8528 89.4194 24.4032C88.966 23.9535 88.7393 23.3941 88.7393 22.7251Z" fill="white"/>
<path d="M78.7122 18.2503H66.7374L63.6252 24.5458H59.0806L71.4058 0L74.3737 0.0219355L86.2661 24.5348H81.6493L78.7122 18.2394V18.2503ZM76.9913 14.5761L72.8382 5.76903L68.4893 14.5761H76.981H76.9913Z" fill="white"/>
<path d="M105.3 22.7251C105.3 22.0561 105.527 21.4748 105.98 20.9922C106.434 20.5096 106.98 20.2683 107.609 20.2683C108.237 20.2683 108.783 20.5096 109.237 20.9922C109.69 21.4748 109.917 22.0561 109.917 22.7251C109.917 23.3941 109.69 23.9535 109.237 24.4032C108.783 24.8528 108.237 25.0832 107.609 25.0832C106.98 25.0832 106.434 24.8528 105.98 24.4032C105.527 23.9535 105.3 23.3941 105.3 22.7251Z" fill="white"/>
<path d="M101.436 0.0769043V24.6227H97.2104V0.0769043H101.436Z" fill="white"/>
<path d="M124.788 3.67419V24.5348H120.562V3.67419H114.132V0H131.197V3.67419H124.788Z" fill="white"/>
<path d="M51.3101 22.802C51.3101 22.133 51.5368 21.5517 51.9902 21.0691C52.4436 20.5865 52.9898 20.3452 53.6185 20.3452C54.2471 20.3452 54.7933 20.5865 55.2467 21.0691C55.7001 21.5517 55.9269 22.133 55.9269 22.802C55.9269 23.471 55.7001 24.0304 55.2467 24.4801C54.7933 24.9297 54.2471 25.1601 53.6185 25.1601C52.9898 25.1601 52.4436 24.9297 51.9902 24.4801C51.5368 24.0304 51.3101 23.471 51.3101 22.802Z" fill="white"/>
<path d="M50.8055 0.691125L43.87 17.3402L37.7899 0.734996H35.5742L29.2261 17.3292L22.7441 0.789835L18.2612 0.81177L27.7937 24.5131C29.1643 24.5021 29.2673 24.5021 30.6379 24.4802L36.6151 8.78532L42.3448 24.4582C43.7154 24.4911 43.8185 24.5021 45.1891 24.535L55.3089 0.669189L50.8055 0.691125Z" fill="white"/>
<path d="M48.8795 32.3878C48.8288 32.2672 48.768 32.1465 48.6869 32.0588C48.6058 31.9601 48.5247 31.8833 48.4233 31.8065C48.3219 31.7407 48.2307 31.6859 48.1293 31.642C48.2104 31.5872 48.2915 31.5323 48.3726 31.4665C48.4537 31.4007 48.5247 31.3239 48.5957 31.2362C48.6666 31.1484 48.7173 31.0497 48.7579 30.9401C48.7984 30.8304 48.8187 30.7207 48.8187 30.5891C48.8187 30.4355 48.7883 30.293 48.7274 30.1504C48.6666 30.0078 48.5652 29.8872 48.4436 29.7775C48.3219 29.6678 48.1597 29.5801 47.9671 29.5252C47.7745 29.4594 47.5515 29.4265 47.2879 29.4265H44.2974V34.022H47.2474C47.5515 34.022 47.8151 33.9891 48.0381 33.9233C48.2611 33.8575 48.4335 33.7697 48.5754 33.6601C48.7072 33.5504 48.8085 33.4188 48.8694 33.2762C48.9302 33.1336 48.9606 32.9691 48.9606 32.8046C48.9606 32.662 48.9403 32.5194 48.8896 32.3988L48.8795 32.3878ZM45.2807 30.1943H47.1359C47.217 30.1943 47.2981 30.1943 47.3893 30.2052C47.4704 30.2052 47.5414 30.2381 47.6123 30.282C47.6731 30.3149 47.7238 30.3697 47.7644 30.4355C47.8049 30.5014 47.8252 30.5891 47.8252 30.6988C47.8252 30.9181 47.7542 31.0607 47.6022 31.1265C47.4603 31.1923 47.2981 31.2362 47.1359 31.2362H45.2807V30.1943ZM47.7745 33.0897C47.6529 33.1884 47.44 33.2433 47.1156 33.2433H45.2807V32.0149H46.9534C47.3183 32.0149 47.5718 32.0697 47.7238 32.1684C47.8759 32.2781 47.957 32.4317 47.957 32.651C47.957 32.8375 47.8962 32.9801 47.7745 33.0897Z" fill="white"/>
<path d="M54.6883 29.3826V32.1574C54.6883 32.4974 54.5667 32.7606 54.3234 32.9581C54.0801 33.1555 53.705 33.2651 53.2083 33.2651C52.7115 33.2651 52.3364 33.1664 52.0931 32.9581C51.8498 32.7606 51.7282 32.4864 51.7282 32.1574V29.3826H50.7651V32.4097C50.7651 32.629 50.8158 32.8374 50.9071 33.0348C51.0084 33.2322 51.1504 33.4077 51.3531 33.5613C51.5559 33.7148 51.8093 33.8355 52.1134 33.9232C52.4277 34.011 52.7825 34.0548 53.2083 34.0548C53.634 34.0548 53.9889 34.011 54.3031 33.9232C54.6174 33.8355 54.8708 33.7148 55.0634 33.5613C55.2662 33.4077 55.4081 33.2322 55.5095 33.0348C55.6108 32.8374 55.6514 32.629 55.6514 32.4097V29.3826H54.6883Z" fill="white"/>
<path d="M61.5415 30.1942V29.4265L56.9897 29.3936V30.1613L58.7638 30.1942V34.011H59.7674V30.1942H61.5415Z" fill="white"/>
<path d="M66.8534 30.1943V29.4265H62.9302V34.022H66.8534V33.2543H63.8932V32.0259H66.0322V31.2581H63.8932V30.2162H66.8534V30.1943Z" fill="white"/>
<path d="M72.1651 32.0697C72.3071 32.0368 72.449 31.982 72.5909 31.9162C72.7328 31.8503 72.8545 31.7626 72.9761 31.6529C73.0876 31.5433 73.1789 31.4226 73.2499 31.2691C73.3208 31.1155 73.3512 30.951 73.3512 30.7645C73.3512 30.271 73.1789 29.92 72.8342 29.7116C72.4895 29.5033 72.0029 29.4045 71.3846 29.4045H68.688C68.688 29.4045 68.688 29.6458 68.688 29.7445V33.9891H69.6916V32.1465H71.1413L72.3882 33.9891H73.5033L72.1651 32.0478V32.0697ZM71.3643 31.4007H69.7119V30.1942H71.3643C71.7191 30.1942 71.9827 30.2491 72.1449 30.3478C72.3071 30.4465 72.3882 30.5891 72.3882 30.7645C72.3882 31.1923 72.0435 31.4116 71.3643 31.4116V31.4007Z" fill="white"/>
<path d="M75.8856 33.1116C76.0681 33.1664 76.2505 33.2213 76.433 33.2542C76.6155 33.2871 76.7675 33.309 76.8689 33.309C76.9703 33.309 77.0919 33.309 77.2339 33.2871C77.3758 33.2761 77.5177 33.2432 77.6596 33.1993C77.8016 33.1555 77.9131 33.0897 78.0145 33.0129C78.1158 32.9361 78.1564 32.8264 78.1564 32.6948C78.1564 32.5413 78.0753 32.4316 77.9029 32.3658C77.7306 32.3 77.5177 32.2451 77.2643 32.2013C77.0108 32.1684 76.727 32.1245 76.433 32.0916C76.1289 32.0587 75.8552 31.9929 75.6017 31.9051C75.3483 31.8174 75.1253 31.6968 74.9631 31.5322C74.7907 31.3677 74.7096 31.1374 74.7096 30.8413C74.7096 30.3916 74.8921 30.0406 75.2672 29.7774C75.6321 29.5142 76.1593 29.3826 76.8182 29.3826C77.1426 29.3826 77.4265 29.4045 77.6596 29.4593C77.8928 29.5142 78.0956 29.569 78.2476 29.6348C78.9471 29.931 79.0992 30.1174 79.0992 30.1174L78.7545 30.7645C78.7545 30.7645 78.3389 30.4903 77.7306 30.2819C77.4468 30.1832 77.1122 30.1613 76.7473 30.1613C76.6053 30.1613 76.4736 30.1613 76.3519 30.1832C76.2303 30.2051 76.1187 30.2271 76.0174 30.271C75.916 30.3148 75.845 30.3697 75.7842 30.4355C75.7335 30.5013 75.7031 30.5781 75.7031 30.6768C75.7031 30.8303 75.7842 30.94 75.9565 31.0058C76.1289 31.0716 76.3418 31.1264 76.5952 31.1593C76.8486 31.1922 77.1325 31.2361 77.4265 31.269C77.7205 31.3019 78.0043 31.3677 78.2578 31.4664C78.5112 31.5651 78.7342 31.6858 78.8964 31.8613C79.0688 32.0368 79.1499 32.278 79.1499 32.5851C79.1499 32.8922 79.0789 33.1445 78.9268 33.3419C78.7748 33.5393 78.5923 33.6929 78.3693 33.8026C78.1462 33.9122 77.9029 33.989 77.6292 34.0219C77.3657 34.0548 77.1122 34.0768 76.8689 34.0768C76.6256 34.0768 76.3925 34.0548 76.1694 34.011C75.9363 33.9671 75.7132 33.9342 75.5308 33.8574C74.9225 33.6051 74.6387 33.3748 74.6387 33.3748L74.9225 32.629C74.9225 32.629 75.3483 32.991 75.8754 33.1555L75.8856 33.1116Z" fill="white"/>
<path d="M87.26 28.8563C87.2094 28.7686 87.1789 28.7028 87.1587 28.6479H85.7496C85.7496 28.6479 85.7496 28.6479 85.7496 28.6699C85.709 28.7467 85.6685 28.8344 85.6178 28.9221L83.2456 34.0002C83.2456 34.0002 83.2456 34.0002 83.2456 34.0112H84.3607C84.3607 34.0112 84.3709 33.9783 84.381 33.9673L85.0602 32.6512H87.6047L88.2332 34.0112C88.2332 34.0112 88.2332 34.0112 88.2332 34.0221H89.6423L87.26 28.8563ZM85.3542 31.8834L86.3375 29.9421L87.2195 31.8834H85.3643H85.3542Z" fill="white"/>
<path d="M92.3491 28.5271H91.1528V34.0219H92.3491V28.5271Z" fill="white"/>
<path d="M102.649 29.4813V28.5271H97.0933V29.4813H99.2728V34.011H100.469V29.4813H102.649Z" fill="white"/>
<path d="M106.258 29.3606C106.643 29.3606 106.998 29.4045 107.342 29.5032C107.677 29.6019 107.971 29.7445 108.224 29.9419C108.478 30.1393 108.67 30.3806 108.822 30.6767C108.964 30.9729 109.045 31.3238 109.045 31.7187C109.045 32.1135 108.974 32.4645 108.822 32.7606C108.68 33.0567 108.478 33.298 108.224 33.4954C107.971 33.6929 107.677 33.8354 107.342 33.9232C107.008 34.0109 106.643 34.0548 106.258 34.0548C105.872 34.0548 105.517 34.0109 105.173 33.9232C104.828 33.8354 104.544 33.6929 104.291 33.4954C104.037 33.298 103.845 33.0567 103.693 32.7606C103.551 32.4645 103.47 32.1135 103.47 31.7187C103.47 31.3238 103.541 30.9729 103.693 30.6767C103.835 30.3806 104.037 30.1393 104.291 29.9419C104.544 29.7445 104.838 29.6019 105.173 29.5032C105.507 29.4045 105.872 29.3606 106.258 29.3606ZM106.258 30.1283C106.035 30.1283 105.822 30.1612 105.609 30.238C105.396 30.3148 105.203 30.4135 105.041 30.5561C104.879 30.6877 104.737 30.8522 104.636 31.0496C104.534 31.247 104.483 31.4664 104.483 31.7187C104.483 31.9709 104.534 32.1903 104.636 32.3877C104.737 32.5851 104.869 32.7496 105.041 32.8812C105.213 33.0129 105.396 33.1225 105.609 33.1993C105.822 33.2761 106.035 33.309 106.258 33.309C106.481 33.309 106.693 33.2761 106.906 33.1993C107.119 33.1225 107.312 33.0238 107.474 32.8812C107.646 32.7496 107.778 32.5851 107.88 32.3877C107.981 32.1903 108.032 31.9709 108.032 31.7187C108.032 31.4664 107.981 31.247 107.88 31.0496C107.778 30.8522 107.646 30.6877 107.474 30.5561C107.312 30.4245 107.119 30.3148 106.906 30.238C106.693 30.1612 106.481 30.1283 106.258 30.1283Z" fill="white"/>
<path d="M112.634 29.3606C113.019 29.3606 113.374 29.4045 113.719 29.5032C114.053 29.6019 114.347 29.7445 114.601 29.9419C114.854 30.1393 115.047 30.3806 115.199 30.6767C115.341 30.9729 115.422 31.3238 115.422 31.7187C115.422 32.1135 115.351 32.4645 115.199 32.7606C115.057 33.0567 114.854 33.298 114.601 33.4954C114.347 33.6929 114.053 33.8354 113.719 33.9232C113.384 34.0109 113.019 34.0548 112.634 34.0548C112.249 34.0548 111.894 34.0109 111.549 33.9232C111.205 33.8354 110.921 33.6929 110.667 33.4954C110.414 33.298 110.221 33.0567 110.069 32.7606C109.927 32.4645 109.846 32.1135 109.846 31.7187C109.846 31.3238 109.917 30.9729 110.069 30.6767C110.211 30.3806 110.414 30.1393 110.667 29.9419C110.921 29.7445 111.215 29.6019 111.549 29.5032C111.884 29.4045 112.249 29.3606 112.634 29.3606ZM112.634 30.1283C112.411 30.1283 112.198 30.1612 111.985 30.238C111.772 30.3148 111.58 30.4135 111.418 30.5561C111.255 30.6877 111.113 30.8522 111.012 31.0496C110.911 31.247 110.86 31.4664 110.86 31.7187C110.86 31.9709 110.911 32.1903 111.012 32.3877C111.113 32.5851 111.245 32.7496 111.418 32.8812C111.59 33.0129 111.772 33.1225 111.985 33.1993C112.198 33.2761 112.411 33.309 112.634 33.309C112.857 33.309 113.07 33.2761 113.283 33.1993C113.496 33.1225 113.688 33.0238 113.85 32.8812C114.023 32.7496 114.155 32.5851 114.256 32.3877C114.357 32.1903 114.408 31.9709 114.408 31.7187C114.408 31.4664 114.357 31.247 114.256 31.0496C114.155 30.8522 114.023 30.6877 113.85 30.5561C113.688 30.4245 113.496 30.3148 113.283 30.238C113.07 30.1612 112.857 30.1283 112.634 30.1283Z" fill="white"/>
<path d="M121.201 33.2433H117.896V29.4155H116.892V34.011H121.201V33.2433Z" fill="white"/>
<path d="M42.4725 30.1943V29.4265H38.5493V34.022H42.4725V33.2543H39.5124V32.0259H41.6514V31.2581H39.5124V30.2162H42.4725V30.1943Z" fill="white"/>
<path d="M123.461 33.1116C123.643 33.1664 123.826 33.2213 124.008 33.2542C124.191 33.2871 124.343 33.309 124.444 33.309C124.545 33.309 124.667 33.309 124.809 33.2871C124.951 33.2761 125.093 33.2432 125.235 33.1993C125.377 33.1555 125.488 33.0897 125.59 33.0129C125.691 32.9361 125.732 32.8264 125.732 32.6948C125.732 32.5413 125.65 32.4316 125.478 32.3658C125.306 32.3 125.093 32.2451 124.839 32.2013C124.586 32.1684 124.302 32.1245 124.008 32.0916C123.704 32.0587 123.43 31.9929 123.177 31.9051C122.923 31.8174 122.7 31.6968 122.538 31.5322C122.366 31.3677 122.285 31.1374 122.285 30.8413C122.285 30.3916 122.467 30.0406 122.842 29.7774C123.207 29.5142 123.734 29.3826 124.393 29.3826C124.718 29.3826 125.002 29.4045 125.235 29.4593C125.468 29.5142 125.671 29.569 125.823 29.6348C126.522 29.931 126.674 30.1174 126.674 30.1174L126.33 30.7645C126.33 30.7645 125.914 30.4903 125.306 30.2819C125.022 30.1832 124.687 30.1613 124.322 30.1613C124.181 30.1613 124.049 30.1613 123.927 30.1832C123.805 30.2051 123.694 30.2271 123.593 30.271C123.491 30.3148 123.42 30.3697 123.359 30.4355C123.309 30.5013 123.278 30.5781 123.278 30.6768C123.278 30.8303 123.359 30.94 123.532 31.0058C123.704 31.0716 123.917 31.1264 124.17 31.1593C124.424 31.1922 124.708 31.2361 125.002 31.269C125.296 31.3019 125.58 31.3677 125.833 31.4664C126.086 31.5651 126.309 31.6858 126.472 31.8613C126.644 32.0368 126.725 32.278 126.725 32.5851C126.725 32.8922 126.654 33.1445 126.502 33.3419C126.35 33.5393 126.167 33.6929 125.944 33.8026C125.721 33.9122 125.478 33.989 125.204 34.0219C124.941 34.0548 124.687 34.0768 124.444 34.0768C124.201 34.0768 123.968 34.0548 123.745 34.011C123.511 33.9671 123.288 33.9342 123.106 33.8574C122.498 33.6051 122.214 33.3748 122.214 33.3748L122.498 32.629C122.498 32.629 122.923 32.991 123.451 33.1555L123.461 33.1116Z" fill="white"/>
<path d="M35.9035 28.7792L34.5552 32.5083H34.5349L33.2475 28.7463H32.2337L30.9462 32.5083H30.926L29.5777 28.7792H28.3916L30.2062 33.6709C30.2265 33.7367 30.2974 33.9231 30.3177 33.978H31.5139C31.5748 33.7915 31.6255 33.638 31.6863 33.4515L32.7406 30.4354L33.7949 33.4515C33.8557 33.638 33.9165 33.7915 33.9672 33.978H35.1634C35.1837 33.9231 35.2547 33.7257 35.2749 33.6709L37.0896 28.7792H35.9035Z" fill="white"/>
<path d="M145 32.8551L135.545 32.8551L135.545 29.5497C135.545 28.8911 135.659 28.3479 135.887 27.9201C136.112 27.4923 136.415 27.1738 136.797 26.9645C137.175 26.7552 137.595 26.6506 138.057 26.6506C138.463 26.6506 138.799 26.7229 139.063 26.8675C139.328 27.0091 139.537 27.1969 139.691 27.4308C139.845 27.6616 139.959 27.9124 140.033 28.1832L140.125 28.1832C140.143 27.8939 140.245 27.6031 140.43 27.3107C140.614 27.0183 140.879 26.7737 141.224 26.5767C141.568 26.3797 141.99 26.2812 142.489 26.2812C142.963 26.2812 143.389 26.389 143.767 26.6044C144.146 26.8198 144.446 27.1599 144.668 27.6246C144.889 28.0894 145 28.6941 145 29.4389L145 32.8551ZM143.984 31.7102L143.984 29.4389C143.984 28.6911 143.84 28.1602 143.55 27.8462C143.258 27.5292 142.904 27.3707 142.489 27.3707C142.169 27.3707 141.873 27.4523 141.602 27.6154C141.328 27.7785 141.11 28.0109 140.947 28.3125C140.781 28.6141 140.697 28.9711 140.697 29.3835L140.697 31.7102L143.984 31.7102ZM139.7 31.7102L139.7 29.5866C139.7 29.242 139.633 28.9311 139.497 28.6541C139.362 28.3741 139.171 28.1525 138.925 27.9893C138.679 27.8232 138.389 27.7401 138.057 27.7401C137.641 27.7401 137.289 27.8847 137 28.174C136.707 28.4633 136.561 28.9219 136.561 29.5497L136.561 31.7102L139.7 31.7102ZM145 23.88L135.545 23.88L135.545 18.1741L136.561 18.1741L136.561 22.7351L139.756 22.7351L139.756 18.4695L140.771 18.4695L140.771 22.7351L143.984 22.7351L143.984 18.1002L145 18.1002L145 23.88ZM136.561 16.1075L135.545 16.1075L135.545 9.01664L136.561 9.01664L136.561 11.9897L145 11.9897L145 13.1345L136.561 13.1345L136.561 16.1075ZM145 7.44639L145 8.64668L135.545 5.17509L135.545 3.99327L145 0.521676L145 1.72196L137.041 4.54724L137.041 4.62111L145 7.44639ZM141.307 7.00321L141.307 2.16514L142.322 2.16514L142.322 7.00321L141.307 7.00321Z" fill="white"/>
</svg>
