<svg width="146" height="35" viewBox="0 0 146 35" fill="none" xmlns="http://www.w3.org/2000/svg">
<path d="M11.4206 1.09668C7.9939 2.88442 4.94566 6.37216 4.50581 13.0296L1.09955 18.5135C0.843824 19.1057 1.09955 19.7967 1.65192 20.0599L4.09665 20.1696C4.34214 20.2902 4.50581 20.5535 4.50581 20.8496V25.9606C4.50581 28.5818 6.51069 30.7096 8.97589 30.7096L12.9857 30.0844L12.9447 33.3638H26.4163" stroke="#38327C" stroke-width="2" stroke-miterlimit="10" stroke-linejoin="round"/>
<path d="M18.5021 14.3026C18.2871 14.2044 18.0517 14.1391 17.796 14.1287C16.6603 14.0653 15.6797 15.0106 15.6306 16.217C15.5814 17.4234 16.4629 18.4632 17.5986 18.5156C18.5296 18.5684 19.3266 17.9526 19.632 17.0746L18.5022 14.3135L18.5021 14.3026Z" fill="#38327C"/>
<path d="M21.7891 22.3445L20.5464 19.3205C19.7702 20.1557 18.6865 20.6625 17.4894 20.5994C15.2691 20.4837 13.5471 18.4696 13.6456 16.1116C13.7442 13.7535 15.4808 12.1156 17.5575 12.0562L15.3082 6.56688C15.0418 6.33717 14.6529 6.2832 14.3258 6.4594L12.4246 7.49448C11.9748 7.73674 11.8018 8.31836 12.0379 8.78941L13.013 10.7941C12.5738 11.2119 12.1858 11.6952 11.8592 12.2114L9.7914 11.4703C9.3205 11.2958 8.79917 11.5712 8.64651 12.076L7.9645 14.2269C7.80162 14.7318 8.05827 15.2795 8.52915 15.443L10.6993 16.2278C10.6907 17.2038 10.8456 18.1357 11.1642 19.0013L9.47825 20.343C9.07975 20.6619 8.99888 21.2653 9.29626 21.6923L10.578 23.5099C10.8754 23.937 11.4485 24.0234 11.847 23.7045L13.5738 22.3298C14.2601 22.8657 15.0485 23.2697 15.8981 23.5091L15.9015 25.6695C15.8819 26.196 16.2918 26.6337 16.7931 26.6326L18.9314 26.6279C19.4327 26.6487 19.8413 26.2201 19.8404 25.6827L19.8367 23.3797C20.2866 23.2252 21.1963 22.7077 21.7892 22.3555L21.7891 22.3445Z" fill="#38327C"/>
<path d="M88.0898 22.7251C88.0898 22.0561 88.3149 21.4748 88.765 20.9922C89.215 20.5096 89.7572 20.2683 90.3811 20.2683C91.0051 20.2683 91.5472 20.5096 91.9973 20.9922C92.4474 21.4748 92.6724 22.0561 92.6724 22.7251C92.6724 23.3941 92.4474 23.9535 91.9973 24.4032C91.5472 24.8528 91.0051 25.0832 90.3811 25.0832C89.7572 25.0832 89.215 24.8528 88.765 24.4032C88.3149 23.9535 88.0898 23.3941 88.0898 22.7251Z" fill="#38327C"/>
<path d="M78.1371 18.2503H66.251L63.1619 24.5458H58.6509L70.8848 0L73.8307 0.0219355L85.635 24.5348H81.0524L78.1371 18.2394V18.2503ZM76.4289 14.5761L72.3066 5.76903L67.99 14.5761H76.4187H76.4289Z" fill="#38327C"/>
<path d="M104.528 22.7251C104.528 22.0561 104.753 21.4748 105.203 20.9922C105.653 20.5096 106.195 20.2683 106.819 20.2683C107.443 20.2683 107.985 20.5096 108.435 20.9922C108.885 21.4748 109.11 22.0561 109.11 22.7251C109.11 23.3941 108.885 23.9535 108.435 24.4032C107.985 24.8528 107.443 25.0832 106.819 25.0832C106.195 25.0832 105.653 24.8528 105.203 24.4032C104.753 23.9535 104.528 23.3941 104.528 22.7251Z" fill="#38327C"/>
<path d="M100.692 0.0769043V24.6227H96.498V0.0769043H100.692Z" fill="#38327C"/>
<path d="M123.871 3.67419V24.5348H119.677V3.67419H113.294V0H130.233V3.67419H123.871Z" fill="#38327C"/>
<path d="M50.938 22.802C50.938 22.133 51.163 21.5517 51.6131 21.0691C52.0632 20.5865 52.6053 20.3452 53.2293 20.3452C53.8533 20.3452 54.3954 20.5865 54.8455 21.0691C55.2955 21.5517 55.5206 22.133 55.5206 22.802C55.5206 23.471 55.2955 24.0304 54.8455 24.4801C54.3954 24.9297 53.8533 25.1601 53.2293 25.1601C52.6053 25.1601 52.0632 24.9297 51.6131 24.4801C51.163 24.0304 50.938 23.471 50.938 22.802Z" fill="#38327C"/>
<path d="M50.437 0.691125L43.5529 17.3402L37.5178 0.734996H35.3185L29.0175 17.3292L22.5834 0.789835L18.1338 0.81177L27.5956 24.5131C28.9561 24.5021 29.0584 24.5021 30.4188 24.4802L36.3517 8.78532L42.039 24.4582C43.3994 24.4911 43.5017 24.5021 44.8622 24.535L54.9071 0.669189L50.437 0.691125Z" fill="#38327C"/>
<path d="M48.5248 32.3878C48.4744 32.2672 48.4141 32.1465 48.3336 32.0588C48.2531 31.9601 48.1726 31.8833 48.072 31.8065C47.9713 31.7407 47.8808 31.6859 47.7801 31.642C47.8606 31.5872 47.9411 31.5323 48.0216 31.4665C48.1021 31.4007 48.1726 31.3239 48.243 31.2362C48.3134 31.1484 48.3638 31.0497 48.404 30.9401C48.4443 30.8304 48.4644 30.7207 48.4644 30.5891C48.4644 30.4355 48.4342 30.293 48.3738 30.1504C48.3134 30.0078 48.2128 29.8872 48.0921 29.7775C47.9713 29.6678 47.8103 29.5801 47.6191 29.5252C47.428 29.4594 47.2066 29.4265 46.945 29.4265H43.9766V34.022H46.9047C47.2066 34.022 47.4682 33.9891 47.6896 33.9233C47.911 33.8575 48.082 33.7697 48.2229 33.6601C48.3537 33.5504 48.4543 33.4188 48.5147 33.2762C48.5751 33.1336 48.6053 32.9691 48.6053 32.8046C48.6053 32.662 48.5851 32.5194 48.5348 32.3988L48.5248 32.3878ZM44.9526 30.1943H46.794C46.8745 30.1943 46.955 30.1943 47.0456 30.2052C47.1261 30.2052 47.1965 30.2381 47.267 30.282C47.3273 30.3149 47.3776 30.3697 47.4179 30.4355C47.4581 30.5014 47.4783 30.5891 47.4783 30.6988C47.4783 30.9181 47.4078 31.0607 47.2569 31.1265C47.116 31.1923 46.955 31.2362 46.794 31.2362H44.9526V30.1943ZM47.428 33.0897C47.3072 33.1884 47.0959 33.2433 46.7739 33.2433H44.9526V32.0149H46.6129C46.9752 32.0149 47.2267 32.0697 47.3776 32.1684C47.5286 32.2781 47.6091 32.4317 47.6091 32.651C47.6091 32.8375 47.5487 32.9801 47.428 33.0897Z" fill="#DC4E4D"/>
<path d="M54.2906 29.3826V32.1574C54.2906 32.4974 54.1699 32.7606 53.9284 32.9581C53.6869 33.1555 53.3146 33.2651 52.8215 33.2651C52.3285 33.2651 51.9562 33.1664 51.7147 32.9581C51.4732 32.7606 51.3524 32.4864 51.3524 32.1574V29.3826H50.3965V32.4097C50.3965 32.629 50.4468 32.8374 50.5374 33.0348C50.638 33.2322 50.7789 33.4077 50.9801 33.5613C51.1813 33.7148 51.4329 33.8355 51.7348 33.9232C52.0467 34.011 52.3989 34.0548 52.8215 34.0548C53.2441 34.0548 53.5963 34.011 53.9083 33.9232C54.2202 33.8355 54.4717 33.7148 54.6629 33.5613C54.8642 33.4077 55.0051 33.2322 55.1057 33.0348C55.2063 32.8374 55.2466 32.629 55.2466 32.4097V29.3826H54.2906Z" fill="#DC4E4D"/>
<path d="M61.0927 30.1942V29.4265L56.5747 29.3936V30.1613L58.3356 30.1942V34.011H59.3318V30.1942H61.0927Z" fill="#DC4E4D"/>
<path d="M66.3653 30.1943V29.4265H62.4712V34.022H66.3653V33.2543H63.4271V32.0259H65.5503V31.2581H63.4271V30.2162H66.3653V30.1943Z" fill="#DC4E4D"/>
<path d="M71.6379 32.0697C71.7788 32.0368 71.9197 31.982 72.0605 31.9162C72.2014 31.8503 72.3222 31.7626 72.4429 31.6529C72.5536 31.5433 72.6442 31.4226 72.7146 31.2691C72.785 31.1155 72.8152 30.951 72.8152 30.7645C72.8152 30.271 72.6442 29.92 72.302 29.7116C71.9599 29.5033 71.4769 29.4045 70.8631 29.4045H68.1865C68.1865 29.4045 68.1865 29.6458 68.1865 29.7445V33.9891H69.1827V32.1465H70.6216L71.8593 33.9891H72.9662L71.6379 32.0478V32.0697ZM70.843 31.4007H69.2028V30.1942H70.843C71.1952 30.1942 71.4568 30.2491 71.6178 30.3478C71.7788 30.4465 71.8593 30.5891 71.8593 30.7645C71.8593 31.1923 71.5172 31.4116 70.843 31.4116V31.4007Z" fill="#DC4E4D"/>
<path d="M75.3309 33.1116C75.5121 33.1664 75.6932 33.2213 75.8743 33.2542C76.0554 33.2871 76.2064 33.309 76.307 33.309C76.4076 33.309 76.5284 33.309 76.6692 33.2871C76.8101 33.2761 76.951 33.2432 77.0919 33.1993C77.2327 33.1555 77.3434 33.0897 77.444 33.0129C77.5447 32.9361 77.5849 32.8264 77.5849 32.6948C77.5849 32.5413 77.5044 32.4316 77.3334 32.3658C77.1623 32.3 76.951 32.2451 76.6994 32.2013C76.4479 32.1684 76.1661 32.1245 75.8743 32.0916C75.5724 32.0587 75.3008 31.9929 75.0492 31.9051C74.7976 31.8174 74.5763 31.6968 74.4153 31.5322C74.2442 31.3677 74.1637 31.1374 74.1637 30.8413C74.1637 30.3916 74.3448 30.0406 74.7171 29.7774C75.0794 29.5142 75.6026 29.3826 76.2567 29.3826C76.5787 29.3826 76.8604 29.4045 77.0919 29.4593C77.3233 29.5142 77.5245 29.569 77.6755 29.6348C78.3698 29.931 78.5207 30.1174 78.5207 30.1174L78.1786 30.7645C78.1786 30.7645 77.766 30.4903 77.1623 30.2819C76.8805 30.1832 76.5485 30.1613 76.1862 30.1613C76.0454 30.1613 75.9146 30.1613 75.7938 30.1832C75.6731 30.2051 75.5624 30.2271 75.4617 30.271C75.3611 30.3148 75.2907 30.3697 75.2303 30.4355C75.18 30.5013 75.1498 30.5781 75.1498 30.6768C75.1498 30.8303 75.2303 30.94 75.4014 31.0058C75.5724 31.0716 75.7837 31.1264 76.0353 31.1593C76.2869 31.1922 76.5686 31.2361 76.8604 31.269C77.1522 31.3019 77.434 31.3677 77.6855 31.4664C77.9371 31.5651 78.1585 31.6858 78.3195 31.8613C78.4905 32.0368 78.571 32.278 78.571 32.5851C78.571 32.8922 78.5006 33.1445 78.3497 33.3419C78.1987 33.5393 78.0176 33.6929 77.7962 33.8026C77.5748 33.9122 77.3334 33.989 77.0617 34.0219C76.8 34.0548 76.5485 34.0768 76.307 34.0768C76.0655 34.0768 75.8341 34.0548 75.6127 34.011C75.3812 33.9671 75.1599 33.9342 74.9788 33.8574C74.375 33.6051 74.0933 33.3748 74.0933 33.3748L74.375 32.629C74.375 32.629 74.7976 32.991 75.3209 33.1555L75.3309 33.1116Z" fill="#DC4E4D"/>
<path d="M86.6209 28.8563C86.5706 28.7686 86.5404 28.7028 86.5203 28.6479H85.1216C85.1216 28.6479 85.1216 28.6479 85.1216 28.6699C85.0814 28.7467 85.0411 28.8344 84.9908 28.9221L82.6362 34.0002C82.6362 34.0002 82.6362 34.0002 82.6362 34.0112H83.7431C83.7431 34.0112 83.7531 33.9783 83.7632 33.9673L84.4374 32.6512H86.9631L87.5869 34.0112C87.5869 34.0112 87.5869 34.0112 87.5869 34.0221H88.9856L86.6209 28.8563ZM84.7292 31.8834L85.7053 29.9421L86.5807 31.8834H84.7393H84.7292Z" fill="#DC4E4D"/>
<path d="M91.6722 28.5271H90.4849V34.0219H91.6722V28.5271Z" fill="#DC4E4D"/>
<path d="M101.896 29.4813V28.5271H96.3813V29.4813H98.5448V34.011H99.7321V29.4813H101.896Z" fill="#DC4E4D"/>
<path d="M105.478 29.3606C105.86 29.3606 106.213 29.4045 106.555 29.5032C106.887 29.6019 107.179 29.7445 107.43 29.9419C107.682 30.1393 107.873 30.3806 108.024 30.6767C108.165 30.9729 108.245 31.3238 108.245 31.7187C108.245 32.1135 108.175 32.4645 108.024 32.7606C107.883 33.0567 107.682 33.298 107.43 33.4954C107.179 33.6929 106.887 33.8354 106.555 33.9232C106.223 34.0109 105.86 34.0548 105.478 34.0548C105.096 34.0548 104.744 34.0109 104.401 33.9232C104.059 33.8354 103.778 33.6929 103.526 33.4954C103.274 33.298 103.083 33.0567 102.932 32.7606C102.791 32.4645 102.711 32.1135 102.711 31.7187C102.711 31.3238 102.781 30.9729 102.932 30.6767C103.073 30.3806 103.274 30.1393 103.526 29.9419C103.778 29.7445 104.069 29.6019 104.401 29.5032C104.733 29.4045 105.096 29.3606 105.478 29.3606ZM105.478 30.1283C105.257 30.1283 105.045 30.1612 104.834 30.238C104.623 30.3148 104.432 30.4135 104.271 30.5561C104.11 30.6877 103.969 30.8522 103.868 31.0496C103.767 31.247 103.717 31.4664 103.717 31.7187C103.717 31.9709 103.767 32.1903 103.868 32.3877C103.969 32.5851 104.1 32.7496 104.271 32.8812C104.442 33.0129 104.623 33.1225 104.834 33.1993C105.045 33.2761 105.257 33.309 105.478 33.309C105.699 33.309 105.911 33.2761 106.122 33.1993C106.333 33.1225 106.525 33.0238 106.686 32.8812C106.857 32.7496 106.987 32.5851 107.088 32.3877C107.189 32.1903 107.239 31.9709 107.239 31.7187C107.239 31.4664 107.189 31.247 107.088 31.0496C106.987 30.8522 106.857 30.6877 106.686 30.5561C106.525 30.4245 106.333 30.3148 106.122 30.238C105.911 30.1612 105.699 30.1283 105.478 30.1283Z" fill="#DC4E4D"/>
<path d="M111.807 29.3606C112.19 29.3606 112.542 29.4045 112.884 29.5032C113.216 29.6019 113.508 29.7445 113.759 29.9419C114.011 30.1393 114.202 30.3806 114.353 30.6767C114.494 30.9729 114.574 31.3238 114.574 31.7187C114.574 32.1135 114.504 32.4645 114.353 32.7606C114.212 33.0567 114.011 33.298 113.759 33.4954C113.508 33.6929 113.216 33.8354 112.884 33.9232C112.552 34.0109 112.19 34.0548 111.807 34.0548C111.425 34.0548 111.073 34.0109 110.731 33.9232C110.388 33.8354 110.107 33.6929 109.855 33.4954C109.604 33.298 109.412 33.0567 109.261 32.7606C109.121 32.4645 109.04 32.1135 109.04 31.7187C109.04 31.3238 109.11 30.9729 109.261 30.6767C109.402 30.3806 109.604 30.1393 109.855 29.9419C110.107 29.7445 110.398 29.6019 110.731 29.5032C111.063 29.4045 111.425 29.3606 111.807 29.3606ZM111.807 30.1283C111.586 30.1283 111.375 30.1612 111.163 30.238C110.952 30.3148 110.761 30.4135 110.6 30.5561C110.439 30.6877 110.298 30.8522 110.197 31.0496C110.097 31.247 110.046 31.4664 110.046 31.7187C110.046 31.9709 110.097 32.1903 110.197 32.3877C110.298 32.5851 110.429 32.7496 110.6 32.8812C110.771 33.0129 110.952 33.1225 111.163 33.1993C111.375 33.2761 111.586 33.309 111.807 33.309C112.029 33.309 112.24 33.2761 112.451 33.1993C112.662 33.1225 112.854 33.0238 113.015 32.8812C113.186 32.7496 113.317 32.5851 113.417 32.3877C113.518 32.1903 113.568 31.9709 113.568 31.7187C113.568 31.4664 113.518 31.247 113.417 31.0496C113.317 30.8522 113.186 30.6877 113.015 30.5561C112.854 30.4245 112.662 30.3148 112.451 30.238C112.24 30.1612 112.029 30.1283 111.807 30.1283Z" fill="#DC4E4D"/>
<path d="M120.31 33.2433H117.029V29.4155H116.033V34.011H120.31V33.2433Z" fill="#DC4E4D"/>
<path d="M42.1656 30.1943V29.4265H38.2715V34.022H42.1656V33.2543H39.2274V32.0259H41.3506V31.2581H39.2274V30.2162H42.1656V30.1943Z" fill="#DC4E4D"/>
<path d="M122.554 33.1116C122.735 33.1664 122.916 33.2213 123.097 33.2542C123.279 33.2871 123.43 33.309 123.53 33.309C123.631 33.309 123.752 33.309 123.892 33.2871C124.033 33.2761 124.174 33.2432 124.315 33.1993C124.456 33.1555 124.567 33.0897 124.667 33.0129C124.768 32.9361 124.808 32.8264 124.808 32.6948C124.808 32.5413 124.728 32.4316 124.556 32.3658C124.385 32.3 124.174 32.2451 123.923 32.2013C123.671 32.1684 123.389 32.1245 123.097 32.0916C122.796 32.0587 122.524 31.9929 122.272 31.9051C122.021 31.8174 121.799 31.6968 121.638 31.5322C121.467 31.3677 121.387 31.1374 121.387 30.8413C121.387 30.3916 121.568 30.0406 121.94 29.7774C122.303 29.5142 122.826 29.3826 123.48 29.3826C123.802 29.3826 124.084 29.4045 124.315 29.4593C124.546 29.5142 124.748 29.569 124.899 29.6348C125.593 29.931 125.744 30.1174 125.744 30.1174L125.402 30.7645C125.402 30.7645 124.989 30.4903 124.385 30.2819C124.104 30.1832 123.772 30.1613 123.409 30.1613C123.269 30.1613 123.138 30.1613 123.017 30.1832C122.896 30.2051 122.786 30.2271 122.685 30.271C122.584 30.3148 122.514 30.3697 122.453 30.4355C122.403 30.5013 122.373 30.5781 122.373 30.6768C122.373 30.8303 122.453 30.94 122.625 31.0058C122.796 31.0716 123.007 31.1264 123.258 31.1593C123.51 31.1922 123.792 31.2361 124.084 31.269C124.375 31.3019 124.657 31.3677 124.909 31.4664C125.16 31.5651 125.382 31.6858 125.543 31.8613C125.714 32.0368 125.794 32.278 125.794 32.5851C125.794 32.8922 125.724 33.1445 125.573 33.3419C125.422 33.5393 125.241 33.6929 125.019 33.8026C124.798 33.9122 124.556 33.989 124.285 34.0219C124.023 34.0548 123.772 34.0768 123.53 34.0768C123.289 34.0768 123.057 34.0548 122.836 34.011C122.604 33.9671 122.383 33.9342 122.202 33.8574C121.598 33.6051 121.316 33.3748 121.316 33.3748L121.598 32.629C121.598 32.629 122.021 32.991 122.544 33.1555L122.554 33.1116Z" fill="#DC4E4D"/>
<path d="M35.6452 28.7792L34.3069 32.5083H34.2868L33.0088 28.7463H32.0026L30.7247 32.5083H30.7046L29.3663 28.7792H28.189L29.9901 33.6709C30.0103 33.7367 30.0807 33.9231 30.1008 33.978H31.2882C31.3486 33.7915 31.3989 33.638 31.4592 33.4515L32.5057 30.4354L33.5522 33.4515C33.6126 33.638 33.673 33.7915 33.7233 33.978H34.9106C34.9308 33.9231 35.0012 33.7257 35.0213 33.6709L36.8225 28.7792H35.6452Z" fill="#DC4E4D"/>
<path d="M144 32.8551L134.545 32.8551L134.545 29.5497C134.545 28.8911 134.659 28.3479 134.887 27.9201C135.112 27.4923 135.415 27.1738 135.797 26.9645C136.175 26.7552 136.595 26.6506 137.057 26.6506C137.463 26.6506 137.799 26.7229 138.063 26.8675C138.328 27.0091 138.537 27.1969 138.691 27.4308C138.845 27.6616 138.959 27.9124 139.033 28.1832L139.125 28.1832C139.143 27.8939 139.245 27.6031 139.43 27.3107C139.614 27.0183 139.879 26.7737 140.224 26.5767C140.568 26.3797 140.99 26.2812 141.489 26.2812C141.963 26.2812 142.389 26.389 142.767 26.6044C143.146 26.8198 143.446 27.1599 143.668 27.6246C143.889 28.0894 144 28.6941 144 29.4389L144 32.8551ZM142.984 31.7102L142.984 29.4389C142.984 28.6911 142.84 28.1602 142.55 27.8462C142.258 27.5292 141.904 27.3707 141.489 27.3707C141.169 27.3707 140.873 27.4523 140.602 27.6154C140.328 27.7785 140.11 28.0109 139.947 28.3125C139.781 28.6141 139.697 28.9711 139.697 29.3835L139.697 31.7102L142.984 31.7102ZM138.7 31.7102L138.7 29.5866C138.7 29.242 138.633 28.9311 138.497 28.6541C138.362 28.3741 138.171 28.1525 137.925 27.9893C137.679 27.8232 137.389 27.7401 137.057 27.7401C136.641 27.7401 136.289 27.8847 136 28.174C135.707 28.4633 135.561 28.9219 135.561 29.5497L135.561 31.7102L138.7 31.7102ZM144 23.88L134.545 23.88L134.545 18.1741L135.561 18.1741L135.561 22.7351L138.756 22.7351L138.756 18.4695L139.771 18.4695L139.771 22.7351L142.984 22.7351L142.984 18.1002L144 18.1002L144 23.88ZM135.561 16.1075L134.545 16.1075L134.545 9.01664L135.561 9.01664L135.561 11.9897L144 11.9897L144 13.1345L135.561 13.1345L135.561 16.1075ZM144 7.44639L144 8.64668L134.545 5.17509L134.545 3.99327L144 0.521676L144 1.72196L136.041 4.54724L136.041 4.62111L144 7.44639ZM140.307 7.00321L140.307 2.16514L141.322 2.16514L141.322 7.00321L140.307 7.00321Z" fill="#38327C"/>
</svg>
