<svg width="20" height="21" fill="none" xmlns="http://www.w3.org/2000/svg"><path d="M4.558 8.373a2.917 2.917 0 1 0 0-5.833 2.917 2.917 0 0 0 0 5.833Zm9.584 5h2.5c.916 0 1.666.75 1.666 1.667v2.5c0 .917-.75 1.667-1.666 1.667h-2.5c-.917 0-1.667-.75-1.667-1.667v-2.5c0-.916.75-1.666 1.667-1.666Z" stroke="#0075FF" stroke-width="1.5"/><path d="M10 5.04h2.233c1.542 0 2.259 1.908 1.1 2.925L6.675 13.79c-1.158 1.009-.442 2.917 1.092 2.917H10" stroke="#0075FF" stroke-width="1.5" stroke-linecap="round" stroke-linejoin="round"/><path d="M4.572 5.457h.01M15.405 16.29h.01" stroke="#0075FF" stroke-width="2" stroke-linecap="round" stroke-linejoin="round"/></svg>