<svg width="36" height="34" viewBox="0 0 36 34" fill="none" xmlns="http://www.w3.org/2000/svg">
<path opacity="0.5" fill-rule="evenodd" clip-rule="evenodd" d="M34.0707 21.445C32.1807 19.3898 28.9133 19.6747 27.3911 22.0061C25.8658 19.6708 22.5945 19.3922 20.7069 21.4496C19.1112 23.1894 19.2935 25.9238 20.9487 27.6064L26.8316 33.5856C27.1384 33.897 27.6408 33.897 27.9476 33.5856L33.832 27.6064C35.4904 25.9223 35.6704 23.1839 34.0707 21.445Z" fill="#258AFF"/>
<path fill-rule="evenodd" clip-rule="evenodd" d="M14.0867 20.8478H6.26064C5.82785 20.8478 5.47803 20.4972 5.47803 20.0652C5.47803 19.6332 5.82785 19.2826 6.26064 19.2826H14.0867C14.5195 19.2826 14.8693 19.6332 14.8693 20.0652C14.8693 20.4972 14.5195 20.8478 14.0867 20.8478Z" fill="#258AFF"/>
<path fill-rule="evenodd" clip-rule="evenodd" d="M3.13043 0.5H32.8696C34.596 0.5 36 1.904 36 3.63043V17.7174H34.4348V13.8043H1.56522V23.9783C1.56522 24.8415 2.26722 25.5435 3.13043 25.5435H15.6522V27.1087H3.13043C1.404 27.1087 0 25.7047 0 23.9783V3.63043C0 1.904 1.404 0.5 3.13043 0.5ZM1.56522 7.54348H34.4348V3.63043C34.4348 2.76722 33.7328 2.06522 32.8696 2.06522H3.13043C2.26722 2.06522 1.56522 2.76722 1.56522 3.63043V7.54348Z" fill="#258AFF"/>
</svg>
