<svg width="36" height="37" viewBox="0 0 36 37" fill="none" xmlns="http://www.w3.org/2000/svg">
<path opacity="0.2" fill-rule="evenodd" clip-rule="evenodd" d="M7.04346 18.5C7.04346 24.5417 11.9582 29.4565 18 29.4565C24.0417 29.4565 28.9565 24.5417 28.9565 18.5C28.9565 12.4582 24.0417 7.54346 18 7.54346C11.9582 7.54346 7.04346 12.4582 7.04346 18.5ZM8.60867 18.5C8.60867 13.3215 12.8215 9.10867 18 9.10867C23.1785 9.10867 27.3913 13.3215 27.3913 18.5C27.3913 23.6785 23.1785 27.8913 18 27.8913C12.8215 27.8913 8.60867 23.6785 8.60867 18.5Z" fill="#258AFF"/>
<path opacity="0.5" fill-rule="evenodd" clip-rule="evenodd" d="M18.0001 21.6304C19.729 21.6304 21.1305 20.2289 21.1305 18.5C21.1305 16.7711 19.729 15.3696 18.0001 15.3696C16.2712 15.3696 14.8696 16.7711 14.8696 18.5C14.8696 20.2289 16.2712 21.6304 18.0001 21.6304Z" fill="#258AFF"/>
<path fill-rule="evenodd" clip-rule="evenodd" d="M34.3346 10.933C33.919 11.253 33.4659 11.527 32.9776 11.7359C33.9253 13.8341 34.4348 16.131 34.4348 18.5C34.4348 27.5626 27.0626 34.9348 18 34.9348C8.93739 34.9348 1.56522 27.5626 1.56522 18.5C1.56522 9.43739 8.93739 2.06522 18 2.06522C21.1477 2.06522 24.221 2.98791 26.8505 4.66817C26.7034 5.07983 26.6087 5.51652 26.6087 5.97826C26.6087 8.13591 28.3641 9.8913 30.5217 9.8913C32.6794 9.8913 34.4348 8.13591 34.4348 5.97826C34.4348 3.82061 32.6794 2.06522 30.5217 2.06522C29.3885 2.06522 28.3743 2.55748 27.659 3.32991C24.7868 1.50252 21.4333 0.5 18 0.5C8.07496 0.5 0 8.57496 0 18.5C0 28.425 8.07496 36.5 18 36.5C27.925 36.5 36 28.425 36 18.5C36 15.8462 35.4185 13.2722 34.3346 10.933Z" fill="#258AFF"/>
</svg>
