<svg width="36" height="36" viewBox="0 0 36 36" fill="none" xmlns="http://www.w3.org/2000/svg">
<path opacity="0.5" fill-rule="evenodd" clip-rule="evenodd" d="M8.03906 4.62591L9.14567 5.73252C11.494 3.3841 14.679 2.06476 18.0001 2.06476C21.3212 2.06476 24.5062 3.3841 26.8545 5.73252L27.9611 4.62591C25.3193 1.98406 21.7362 0.499878 18.0001 0.499878C14.264 0.499878 10.6809 1.98406 8.03906 4.62591Z" fill="#258AFF"/>
<path opacity="0.5" fill-rule="evenodd" clip-rule="evenodd" d="M18.0001 6.76087C15.924 6.75814 13.9324 7.58311 12.4663 9.05313L13.5729 10.1597C14.7471 8.98553 16.3396 8.32586 18.0001 8.32586C19.6607 8.32586 21.2532 8.98553 22.4274 10.1597L23.534 9.05313C22.0679 7.58311 20.0763 6.75814 18.0001 6.76087Z" fill="#258AFF"/>
<path fill-rule="evenodd" clip-rule="evenodd" d="M23.4782 28.6739V26.1077L21.6657 25.5028C21.458 25.4332 21.289 25.2797 21.1997 25.0796C21.1105 24.8795 21.1092 24.6512 21.1961 24.4502L23.4782 19.1832V17.7174C23.4681 14.6031 24.8895 11.6568 27.3334 9.72643C29.7773 7.79605 32.9726 7.09565 35.9999 7.82678V35.7174H29.7391V31.8043H26.6086C24.8797 31.8043 23.4782 30.4028 23.4782 28.6739Z" fill="#258AFF"/>
<path fill-rule="evenodd" clip-rule="evenodd" d="M12.5217 28.6739V26.1077L14.3343 25.5028C14.542 25.4331 14.711 25.2796 14.8002 25.0796C14.8895 24.8795 14.8908 24.6512 14.8038 24.4502L12.5217 19.1832V17.7174C12.5217 12.0985 7.96672 7.54346 2.34783 7.54346C1.55687 7.54641 0.768954 7.64149 0 7.82676V35.7174H6.26087V31.8043H9.3913C11.1202 31.8043 12.5217 30.4028 12.5217 28.6739Z" fill="#258AFF"/>
<path opacity="0.5" fill-rule="evenodd" clip-rule="evenodd" d="M17.9998 16.1522C18.8642 16.1522 19.565 15.4514 19.565 14.5869C19.565 13.7225 18.8642 13.0217 17.9998 13.0217C17.1353 13.0217 16.4346 13.7225 16.4346 14.5869C16.4346 15.4514 17.1353 16.1522 17.9998 16.1522Z" fill="#258AFF"/>
</svg>
