<svg width="135" height="34" viewBox="0 0 135 34" fill="none" xmlns="http://www.w3.org/2000/svg">
<g clip-path="url(#clip0_93_825)">
<path d="M13.5902 1.09668C10.1379 2.88442 7.0669 6.37216 6.62377 13.0296L3.19209 18.5135C2.93446 19.1057 3.19209 19.7967 3.74858 20.0599L6.21155 20.1696C6.45888 20.2902 6.62377 20.5535 6.62377 20.8496V25.9606C6.62377 28.5818 8.64362 30.7096 11.1272 30.7096L15.1669 30.0844L15.1257 33.3638H28.6978" stroke="#38327C" stroke-width="2" stroke-miterlimit="10" stroke-linejoin="round"/>
<path d="M20.7243 14.3024C20.5077 14.2041 20.2705 14.1389 20.0128 14.1284C18.8687 14.0651 17.8808 15.0103 17.8313 16.2167C17.7818 17.4232 18.6699 18.4631 19.814 18.5155C20.752 18.5683 21.5549 17.9524 21.8626 17.0745L20.7243 14.3134L20.7243 14.3024Z" fill="#38327C"/>
<path d="M14.625 7.53847L14.6249 7.53858C14.1969 7.7674 14.0302 8.31885 14.2564 8.76687L14.2566 8.7674L15.239 10.7722C15.2487 10.7918 15.2444 10.8155 15.2284 10.8305C14.7892 11.2452 14.4009 11.7253 14.0739 12.2383C14.0614 12.258 14.0369 12.2664 14.015 12.2586L11.9317 11.5174L11.9312 11.5172C11.4858 11.3535 10.989 11.6112 10.843 12.0906L10.8428 12.0912L10.8428 12.0912L10.1557 14.2422L10.1556 14.2425C9.99924 14.7235 10.2466 15.2419 10.6932 15.3958L10.6938 15.396L12.8802 16.1808C12.9002 16.188 12.9134 16.207 12.9132 16.2283C12.9046 17.1987 13.0598 18.1245 13.3784 18.984C13.386 19.0044 13.3795 19.0272 13.3625 19.0407L11.6641 20.3823C11.2841 20.6842 11.2058 21.2575 11.4906 21.6636C11.4906 21.6636 11.4906 21.6637 11.4907 21.6637L12.7818 23.4811L12.782 23.4814C13.0654 23.8854 13.6099 23.9661 13.9883 23.6655L13.9884 23.6655L15.7281 22.2908C15.7461 22.2765 15.7715 22.2764 15.7897 22.2905C16.4761 22.8224 17.2646 23.2235 18.1141 23.4611C18.1357 23.4671 18.1506 23.4868 18.1507 23.5091L18.1541 25.6696L18.1542 25.6716L18.1541 25.6716C18.1354 26.1711 18.5271 26.5839 19.0023 26.5828L21.1565 26.5781L21.1587 26.5781L21.1587 26.5781C21.6318 26.5976 22.0232 26.1955 22.0224 25.683L22.0186 23.38C22.0186 23.3586 22.0322 23.3395 22.0525 23.3326C22.2748 23.2568 22.614 23.0906 22.9746 22.8978C23.3207 22.7127 23.6837 22.5047 23.9764 22.3325L22.7667 19.4107M22.7667 19.4107C21.9798 20.2222 20.8963 20.712 19.7012 20.6495M22.7667 19.4107L22.7459 19.3603C21.9667 20.1718 20.8906 20.6617 19.7038 20.5995C17.467 20.4838 15.7322 18.4698 15.8315 16.1117C15.9299 13.7737 17.6506 12.1436 19.7191 12.0581L19.6988 12.0089C17.6119 12.1044 15.8807 13.7531 15.7815 16.1096C15.6812 18.4925 17.4346 20.5322 19.7012 20.6495M19.7012 20.6495L19.7038 20.5996L19.7012 20.6495C19.7012 20.6495 19.7012 20.6495 19.7012 20.6495Z" fill="#38327C" stroke="#EAF6F3" stroke-width="0.1" stroke-miterlimit="10" stroke-linejoin="round"/>
<path d="M90.8311 22.7251C90.8311 22.0561 91.0578 21.4748 91.5112 20.9922C91.9646 20.5096 92.5108 20.2683 93.1394 20.2683C93.7681 20.2683 94.3143 20.5096 94.7677 20.9922C95.2211 21.4748 95.4478 22.0561 95.4478 22.7251C95.4478 23.3941 95.2211 23.9535 94.7677 24.4031C94.3143 24.8528 93.7681 25.0832 93.1394 25.0832C92.5108 25.0832 91.9646 24.8528 91.5112 24.4031C91.0578 23.9535 90.8311 23.3941 90.8311 22.7251Z" fill="#38327C"/>
<path d="M80.804 18.2503H68.8292L65.717 24.5458H61.1724L73.4976 0L76.4655 0.0219355L88.3579 24.5348H83.7411L80.804 18.2394V18.2503ZM79.0831 14.5761L74.93 5.76903L70.5811 14.5761H79.0728H79.0831Z" fill="#38327C"/>
<path d="M107.392 22.7251C107.392 22.0561 107.619 21.4748 108.072 20.9922C108.526 20.5096 109.072 20.2683 109.7 20.2683C110.329 20.2683 110.875 20.5096 111.329 20.9922C111.782 21.4748 112.009 22.0561 112.009 22.7251C112.009 23.3941 111.782 23.9535 111.329 24.4031C110.875 24.8528 110.329 25.0832 109.7 25.0832C109.072 25.0832 108.526 24.8528 108.072 24.4031C107.619 23.9535 107.392 23.3941 107.392 22.7251Z" fill="#38327C"/>
<path d="M103.527 0.0769043V24.6227H99.3022V0.0769043H103.527Z" fill="#38327C"/>
<path d="M126.879 3.67419V24.5348H122.654V3.67419H116.224V0H133.289V3.67419H126.879Z" fill="#38327C"/>
<path d="M53.4019 22.802C53.4019 22.133 53.6286 21.5517 54.082 21.0691C54.5354 20.5865 55.0816 20.3452 55.7103 20.3452C56.3389 20.3452 56.8851 20.5865 57.3385 21.0691C57.7919 21.5517 58.0186 22.133 58.0186 22.802C58.0186 23.471 57.7919 24.0304 57.3385 24.4801C56.8851 24.9297 56.3389 25.1601 55.7103 25.1601C55.0816 25.1601 54.5354 24.9297 54.082 24.4801C53.6286 24.0304 53.4019 23.471 53.4019 22.802Z" fill="#38327C"/>
<path d="M52.8973 0.691125L45.9618 17.3402L39.8817 0.734996H37.666L31.3179 17.3292L24.8359 0.789835L20.353 0.81177L29.8855 24.5131C31.2561 24.5021 31.3591 24.5021 32.7297 24.4802L38.7068 8.78532L44.4366 24.4582C45.8072 24.4911 45.9103 24.5021 47.2809 24.535L57.4007 0.669189L52.8973 0.691125Z" fill="#38327C"/>
<path d="M50.9713 32.3878C50.9206 32.2672 50.8598 32.1465 50.7787 32.0588C50.6976 31.9601 50.6165 31.8833 50.5151 31.8065C50.4137 31.7407 50.3225 31.6859 50.2211 31.642C50.3022 31.5872 50.3833 31.5323 50.4644 31.4665C50.5455 31.4007 50.6165 31.3239 50.6874 31.2362C50.7584 31.1484 50.8091 31.0497 50.8496 30.9401C50.8902 30.8304 50.9105 30.7207 50.9105 30.5891C50.9105 30.4355 50.8801 30.293 50.8192 30.1504C50.7584 30.0078 50.657 29.8872 50.5354 29.7775C50.4137 29.6678 50.2515 29.5801 50.0589 29.5252C49.8663 29.4594 49.6433 29.4265 49.3797 29.4265H46.3892V34.022H49.3392C49.6433 34.022 49.9069 33.9891 50.1299 33.9233C50.3529 33.8575 50.5253 33.7697 50.6672 33.6601C50.799 33.5504 50.9003 33.4188 50.9612 33.2762C51.022 33.1336 51.0524 32.9691 51.0524 32.8046C51.0524 32.662 51.0321 32.5194 50.9814 32.3988L50.9713 32.3878ZM47.3725 30.1943H49.2277C49.3088 30.1943 49.3899 30.1943 49.4811 30.2052C49.5622 30.2052 49.6332 30.2381 49.7041 30.282C49.7649 30.3149 49.8156 30.3697 49.8562 30.4355C49.8967 30.5014 49.917 30.5891 49.917 30.6988C49.917 30.9181 49.846 31.0607 49.694 31.1265C49.5521 31.1923 49.3899 31.2362 49.2277 31.2362H47.3725V30.1943ZM49.8663 33.0897C49.7447 33.1884 49.5318 33.2433 49.2074 33.2433H47.3725V32.0149H49.0452C49.4101 32.0149 49.6636 32.0697 49.8156 32.1684C49.9677 32.2781 50.0488 32.4317 50.0488 32.651C50.0488 32.8375 49.988 32.9801 49.8663 33.0897Z" fill="#DC4E4D"/>
<path d="M56.7801 29.3826V32.1574C56.7801 32.4974 56.6585 32.7606 56.4152 32.958C56.1719 33.1555 55.7968 33.2651 55.3001 33.2651C54.8033 33.2651 54.4282 33.1664 54.1849 32.958C53.9416 32.7606 53.82 32.4864 53.82 32.1574V29.3826H52.8569V32.4097C52.8569 32.629 52.9076 32.8374 52.9989 33.0348C53.1002 33.2322 53.2422 33.4077 53.4449 33.5613C53.6477 33.7148 53.9011 33.8355 54.2052 33.9232C54.5195 34.011 54.8743 34.0548 55.3001 34.0548C55.7258 34.0548 56.0806 34.011 56.3949 33.9232C56.7092 33.8355 56.9626 33.7148 57.1552 33.5613C57.358 33.4077 57.4999 33.2322 57.6013 33.0348C57.7026 32.8374 57.7432 32.629 57.7432 32.4097V29.3826H56.7801Z" fill="#DC4E4D"/>
<path d="M63.6333 30.1942V29.4265L59.0815 29.3936V30.1613L60.8556 30.1942V34.011H61.8592V30.1942H63.6333Z" fill="#DC4E4D"/>
<path d="M68.9452 30.1943V29.4265H65.022V34.022H68.9452V33.2543H65.985V32.0259H68.124V31.2581H65.985V30.2162H68.9452V30.1943Z" fill="#DC4E4D"/>
<path d="M74.2569 32.0697C74.3989 32.0368 74.5408 31.982 74.6827 31.9162C74.8246 31.8503 74.9463 31.7626 75.0679 31.6529C75.1794 31.5433 75.2707 31.4226 75.3416 31.2691C75.4126 31.1155 75.443 30.951 75.443 30.7645C75.443 30.271 75.2707 29.92 74.926 29.7116C74.5813 29.5033 74.0947 29.4045 73.4763 29.4045H70.7798C70.7798 29.4045 70.7798 29.6458 70.7798 29.7445V33.9891H71.7834V32.1465H73.2331L74.48 33.9891H75.5951L74.2569 32.0478V32.0697ZM73.4561 31.4007H71.8037V30.1942H73.4561C73.8109 30.1942 74.0745 30.2491 74.2367 30.3478C74.3989 30.4465 74.48 30.5891 74.48 30.7645C74.48 31.1923 74.1353 31.4116 73.4561 31.4116V31.4007Z" fill="#DC4E4D"/>
<path d="M77.9774 33.1116C78.1599 33.1664 78.3423 33.2213 78.5248 33.2542C78.7073 33.2871 78.8593 33.309 78.9607 33.309C79.0621 33.309 79.1837 33.309 79.3257 33.2871C79.4676 33.2761 79.6095 33.2432 79.7514 33.1993C79.8934 33.1555 80.0049 33.0897 80.1063 33.0129C80.2076 32.9361 80.2482 32.8264 80.2482 32.6948C80.2482 32.5413 80.1671 32.4316 79.9947 32.3658C79.8224 32.3 79.6095 32.2451 79.3561 32.2013C79.1026 32.1684 78.8188 32.1245 78.5248 32.0916C78.2207 32.0587 77.947 31.9929 77.6935 31.9051C77.4401 31.8174 77.2171 31.6968 77.0549 31.5322C76.8825 31.3677 76.8014 31.1374 76.8014 30.8413C76.8014 30.3916 76.9839 30.0406 77.359 29.7774C77.7239 29.5142 78.2511 29.3826 78.91 29.3826C79.2344 29.3826 79.5183 29.4045 79.7514 29.4593C79.9846 29.5142 80.1874 29.569 80.3394 29.6348C81.0389 29.931 81.191 30.1174 81.191 30.1174L80.8463 30.7645C80.8463 30.7645 80.4307 30.4903 79.8224 30.2819C79.5386 30.1832 79.204 30.1613 78.8391 30.1613C78.6971 30.1613 78.5654 30.1613 78.4437 30.1832C78.3221 30.2051 78.2105 30.2271 78.1092 30.271C78.0078 30.3148 77.9368 30.3697 77.876 30.4355C77.8253 30.5013 77.7949 30.5781 77.7949 30.6768C77.7949 30.8303 77.876 30.94 78.0483 31.0058C78.2207 31.0716 78.4336 31.1264 78.687 31.1593C78.9404 31.1922 79.2243 31.2361 79.5183 31.269C79.8123 31.3019 80.0961 31.3677 80.3495 31.4664C80.603 31.5651 80.826 31.6858 80.9882 31.8613C81.1606 32.0368 81.2417 32.2781 81.2417 32.5851C81.2417 32.8922 81.1707 33.1445 81.0186 33.3419C80.8666 33.5393 80.6841 33.6929 80.4611 33.8026C80.238 33.9122 79.9947 33.989 79.721 34.0219C79.4575 34.0548 79.204 34.0768 78.9607 34.0768C78.7174 34.0768 78.4843 34.0548 78.2612 34.011C78.0281 33.9671 77.805 33.9342 77.6226 33.8574C77.0143 33.6051 76.7305 33.3748 76.7305 33.3748L77.0143 32.629C77.0143 32.629 77.4401 32.991 77.9672 33.1555L77.9774 33.1116Z" fill="#DC4E4D"/>
<path d="M89.3518 28.8563C89.3012 28.7686 89.2707 28.7028 89.2505 28.6479H87.8414C87.8414 28.6479 87.8414 28.6479 87.8414 28.6699C87.8008 28.7467 87.7603 28.8344 87.7096 28.9221L85.3374 34.0002C85.3374 34.0002 85.3374 34.0002 85.3374 34.0112H86.4525C86.4525 34.0112 86.4627 33.9783 86.4728 33.9673L87.152 32.6512H89.6965L90.325 34.0112C90.325 34.0112 90.325 34.0112 90.325 34.0221H91.7341L89.3518 28.8563ZM87.446 31.8834L88.4293 29.9421L89.3113 31.8834H87.4561H87.446Z" fill="#DC4E4D"/>
<path d="M94.4408 28.5271H93.2446V34.0219H94.4408V28.5271Z" fill="#DC4E4D"/>
<path d="M104.74 29.4813V28.5271H99.1851V29.4813H101.365V34.011H102.561V29.4813H104.74Z" fill="#DC4E4D"/>
<path d="M108.349 29.3606C108.735 29.3606 109.089 29.4045 109.434 29.5032C109.769 29.6019 110.063 29.7445 110.316 29.9419C110.569 30.1393 110.762 30.3806 110.914 30.6767C111.056 30.9729 111.137 31.3238 111.137 31.7187C111.137 32.1135 111.066 32.4645 110.914 32.7606C110.772 33.0567 110.569 33.298 110.316 33.4954C110.063 33.6929 109.769 33.8354 109.434 33.9232C109.1 34.0109 108.735 34.0548 108.349 34.0548C107.964 34.0548 107.609 34.0109 107.265 33.9232C106.92 33.8354 106.636 33.6929 106.383 33.4954C106.129 33.298 105.937 33.0567 105.785 32.7606C105.643 32.4645 105.562 32.1135 105.562 31.7187C105.562 31.3238 105.632 30.9729 105.785 30.6767C105.926 30.3806 106.129 30.1393 106.383 29.9419C106.636 29.7445 106.93 29.6019 107.265 29.5032C107.599 29.4045 107.964 29.3606 108.349 29.3606ZM108.349 30.1283C108.126 30.1283 107.913 30.1612 107.701 30.238C107.488 30.3148 107.295 30.4135 107.133 30.5561C106.971 30.6877 106.829 30.8522 106.727 31.0496C106.626 31.247 106.575 31.4664 106.575 31.7187C106.575 31.9709 106.626 32.1903 106.727 32.3877C106.829 32.5851 106.96 32.7496 107.133 32.8812C107.305 33.0129 107.488 33.1225 107.701 33.1993C107.913 33.2761 108.126 33.309 108.349 33.309C108.572 33.309 108.785 33.2761 108.998 33.1993C109.211 33.1225 109.404 33.0238 109.566 32.8812C109.738 32.7496 109.87 32.5851 109.971 32.3877C110.073 32.1903 110.123 31.9709 110.123 31.7187C110.123 31.4664 110.073 31.247 109.971 31.0496C109.87 30.8522 109.738 30.6877 109.566 30.5561C109.404 30.4245 109.211 30.3148 108.998 30.238C108.785 30.1612 108.572 30.1283 108.349 30.1283Z" fill="#DC4E4D"/>
<path d="M114.726 29.3606C115.111 29.3606 115.466 29.4045 115.811 29.5032C116.145 29.6019 116.439 29.7445 116.692 29.9419C116.946 30.1393 117.139 30.3806 117.291 30.6767C117.432 30.9729 117.514 31.3238 117.514 31.7187C117.514 32.1135 117.443 32.4645 117.291 32.7606C117.149 33.0567 116.946 33.298 116.692 33.4954C116.439 33.6929 116.145 33.8354 115.811 33.9232C115.476 34.0109 115.111 34.0548 114.726 34.0548C114.341 34.0548 113.986 34.0109 113.641 33.9232C113.296 33.8354 113.013 33.6929 112.759 33.4954C112.506 33.298 112.313 33.0567 112.161 32.7606C112.019 32.4645 111.938 32.1135 111.938 31.7187C111.938 31.3238 112.009 30.9729 112.161 30.6767C112.303 30.3806 112.506 30.1393 112.759 29.9419C113.013 29.7445 113.307 29.6019 113.641 29.5032C113.976 29.4045 114.341 29.3606 114.726 29.3606ZM114.726 30.1283C114.503 30.1283 114.29 30.1612 114.077 30.238C113.864 30.3148 113.671 30.4135 113.509 30.5561C113.347 30.6877 113.205 30.8522 113.104 31.0496C113.002 31.247 112.952 31.4664 112.952 31.7187C112.952 31.9709 113.002 32.1903 113.104 32.3877C113.205 32.5851 113.337 32.7496 113.509 32.8812C113.682 33.0129 113.864 33.1225 114.077 33.1993C114.29 33.2761 114.503 33.309 114.726 33.309C114.949 33.309 115.162 33.2761 115.375 33.1993C115.587 33.1225 115.78 33.0238 115.942 32.8812C116.115 32.7496 116.246 32.5851 116.348 32.3877C116.449 32.1903 116.5 31.9709 116.5 31.7187C116.5 31.4664 116.449 31.247 116.348 31.0496C116.246 30.8522 116.115 30.6877 115.942 30.5561C115.78 30.4245 115.587 30.3148 115.375 30.238C115.162 30.1612 114.949 30.1283 114.726 30.1283Z" fill="#DC4E4D"/>
<path d="M123.292 33.2433H119.988V29.4155H118.984V34.011H123.292V33.2433Z" fill="#DC4E4D"/>
<path d="M44.5643 30.1943V29.4265H40.6411V34.022H44.5643V33.2543H41.6042V32.0259H43.7432V31.2581H41.6042V30.2162H44.5643V30.1943Z" fill="#DC4E4D"/>
<path d="M125.553 33.1116C125.735 33.1664 125.918 33.2213 126.1 33.2542C126.282 33.2871 126.435 33.309 126.536 33.309C126.637 33.309 126.759 33.309 126.901 33.2871C127.043 33.2761 127.185 33.2432 127.327 33.1993C127.469 33.1555 127.58 33.0897 127.681 33.0129C127.783 32.9361 127.823 32.8264 127.823 32.6948C127.823 32.5413 127.742 32.4316 127.57 32.3658C127.398 32.3 127.185 32.2451 126.931 32.2013C126.678 32.1684 126.394 32.1245 126.1 32.0916C125.796 32.0587 125.522 31.9929 125.269 31.9051C125.015 31.8174 124.792 31.6968 124.63 31.5322C124.458 31.3677 124.377 31.1374 124.377 30.8413C124.377 30.3916 124.559 30.0406 124.934 29.7774C125.299 29.5142 125.826 29.3826 126.485 29.3826C126.81 29.3826 127.093 29.4045 127.327 29.4593C127.56 29.5142 127.763 29.569 127.915 29.6348C128.614 29.931 128.766 30.1174 128.766 30.1174L128.421 30.7645C128.421 30.7645 128.006 30.4903 127.398 30.2819C127.114 30.1832 126.779 30.1613 126.414 30.1613C126.272 30.1613 126.141 30.1613 126.019 30.1832C125.897 30.2051 125.786 30.2271 125.684 30.271C125.583 30.3148 125.512 30.3697 125.451 30.4355C125.401 30.5013 125.37 30.5781 125.37 30.6768C125.37 30.8303 125.451 30.94 125.624 31.0058C125.796 31.0716 126.009 31.1264 126.262 31.1593C126.516 31.1922 126.799 31.2361 127.093 31.269C127.387 31.3019 127.671 31.3677 127.925 31.4664C128.178 31.5651 128.401 31.6858 128.563 31.8613C128.736 32.0368 128.817 32.2781 128.817 32.5851C128.817 32.8922 128.746 33.1445 128.594 33.3419C128.442 33.5393 128.259 33.6929 128.036 33.8026C127.813 33.9122 127.57 33.989 127.296 34.0219C127.033 34.0548 126.779 34.0768 126.536 34.0768C126.293 34.0768 126.059 34.0548 125.836 34.011C125.603 33.9671 125.38 33.9342 125.198 33.8574C124.59 33.6051 124.306 33.3748 124.306 33.3748L124.59 32.629C124.59 32.629 125.015 32.991 125.542 33.1555L125.553 33.1116Z" fill="#DC4E4D"/>
<path d="M37.9953 28.7792L36.647 32.5083H36.6267L35.3392 28.7463H34.3255L33.038 32.5083H33.0178L31.6695 28.7792H30.4834L32.298 33.6709C32.3183 33.7367 32.3892 33.9231 32.4095 33.978H33.6057C33.6666 33.7915 33.7173 33.638 33.7781 33.4515L34.8324 30.4354L35.8867 33.4515C35.9475 33.638 36.0083 33.7915 36.059 33.978H37.2552C37.2755 33.9231 37.3465 33.7257 37.3667 33.6709L39.1814 28.7792H37.9953Z" fill="#DC4E4D"/>
</g>
<defs>
<clipPath id="clip0_93_825">
<rect width="135" height="34" fill="white"/>
</clipPath>
</defs>
</svg>
