<svg width="20" height="21" viewBox="0 0 20 21" fill="none" xmlns="http://www.w3.org/2000/svg">
<path d="M4.55827 8.37349C6.1691 8.37349 7.47493 7.06766 7.47493 5.45683C7.47493 3.846 6.1691 2.54016 4.55827 2.54016C2.94744 2.54016 1.6416 3.846 1.6416 5.45683C1.6416 7.06766 2.94744 8.37349 4.55827 8.37349Z" stroke="#0075FF" stroke-width="1.5"/>
<path d="M14.1418 13.3735H16.6418C17.5584 13.3735 18.3084 14.1235 18.3084 15.0402V17.5402C18.3084 18.4569 17.5584 19.2069 16.6418 19.2069H14.1418C13.2251 19.2069 12.4751 18.4569 12.4751 17.5402V15.0402C12.4751 14.1235 13.2251 13.3735 14.1418 13.3735Z" stroke="#0075FF" stroke-width="1.5"/>
<path d="M9.99991 5.04016H12.2332C13.7749 5.04016 14.4916 6.94849 13.3332 7.96516L6.67491 13.7902C5.51658 14.7985 6.23325 16.7068 7.76658 16.7068H9.99991" stroke="#0075FF" stroke-width="1.5" stroke-linecap="round" stroke-linejoin="round"/>
<path d="M4.57209 5.45683H4.58172" stroke="#0075FF" stroke-width="2" stroke-linecap="round" stroke-linejoin="round"/>
<path d="M15.4051 16.2902H15.4147" stroke="#0075FF" stroke-width="2" stroke-linecap="round" stroke-linejoin="round"/>
</svg>
